<svg width="60" height="24" viewBox="0 0 60 24" fill="none" xmlns="http://www.w3.org/2000/svg">
<path d="M30.9401 19.26C29.4601 19.26 28.2401 18.8733 27.2801 18.1C26.3334 17.3267 25.7601 16.3 25.5601 15.02L28.0801 14.4C28.2267 15.2533 28.5601 15.8933 29.0801 16.32C29.6134 16.7467 30.2667 16.96 31.0401 16.96C31.4534 16.96 31.8201 16.8933 32.1401 16.76C32.4734 16.6133 32.7334 16.4067 32.9201 16.14C33.1201 15.86 33.2201 15.5333 33.2201 15.16C33.2201 14.8133 33.1201 14.5133 32.9201 14.26C32.7201 14.0067 32.4134 13.7733 32.0001 13.56C31.6001 13.3467 31.0934 13.1267 30.4801 12.9C29.6001 12.5533 28.8601 12.1867 28.2601 11.8C27.6734 11.4 27.2334 10.94 26.9401 10.42C26.6467 9.9 26.5001 9.28667 26.5001 8.58C26.5001 7.83333 26.6801 7.17333 27.0401 6.6C27.4134 6.02667 27.9267 5.57333 28.5801 5.24C29.2467 4.90666 30.0201 4.74 30.9001 4.74C31.8334 4.74 32.6601 4.96 33.3801 5.4C34.1134 5.82667 34.7001 6.46667 35.1401 7.32L33.0801 8.58C32.8001 8.07333 32.4667 7.69333 32.0801 7.44C31.7067 7.17333 31.2867 7.04 30.8201 7.04C30.4867 7.04 30.1867 7.10667 29.9201 7.24C29.6667 7.36 29.4601 7.53333 29.3001 7.76C29.1534 7.97333 29.0801 8.22667 29.0801 8.52C29.0801 8.82666 29.1667 9.1 29.3401 9.34C29.5267 9.58 29.8201 9.81333 30.2201 10.04C30.6334 10.2533 31.1667 10.48 31.8201 10.72C32.6867 11.04 33.4067 11.3933 33.9801 11.78C34.5667 12.1667 35.0134 12.62 35.3201 13.14C35.6267 13.6467 35.7801 14.2667 35.7801 15C35.7801 15.8267 35.5734 16.5667 35.1601 17.22C34.7601 17.86 34.2001 18.36 33.4801 18.72C32.7601 19.08 31.9134 19.26 30.9401 19.26Z" fill="#1E1E1E"/>
<path d="M37.844 19V5.06H47.124V7.38H40.424V10.7H46.684V13H40.424V16.68H47.124V19H37.844Z" fill="#1E1E1E"/>
<path d="M53.9283 19.26C52.4483 19.26 51.2283 18.8733 50.2683 18.1C49.3217 17.3267 48.7483 16.3 48.5483 15.02L51.0683 14.4C51.215 15.2533 51.5483 15.8933 52.0683 16.32C52.6017 16.7467 53.255 16.96 54.0283 16.96C54.4417 16.96 54.8083 16.8933 55.1283 16.76C55.4617 16.6133 55.7217 16.4067 55.9083 16.14C56.1083 15.86 56.2083 15.5333 56.2083 15.16C56.2083 14.8133 56.1083 14.5133 55.9083 14.26C55.7083 14.0067 55.4017 13.7733 54.9883 13.56C54.5883 13.3467 54.0817 13.1267 53.4683 12.9C52.5883 12.5533 51.8483 12.1867 51.2483 11.8C50.6617 11.4 50.2217 10.94 49.9283 10.42C49.635 9.9 49.4883 9.28667 49.4883 8.58C49.4883 7.83333 49.6683 7.17333 50.0283 6.6C50.4017 6.02667 50.915 5.57333 51.5683 5.24C52.235 4.90666 53.0083 4.74 53.8883 4.74C54.8217 4.74 55.6483 4.96 56.3683 5.4C57.1017 5.82667 57.6883 6.46667 58.1283 7.32L56.0683 8.58C55.7883 8.07333 55.455 7.69333 55.0683 7.44C54.695 7.17333 54.275 7.04 53.8083 7.04C53.475 7.04 53.175 7.10667 52.9083 7.24C52.655 7.36 52.4483 7.53333 52.2883 7.76C52.1417 7.97333 52.0683 8.22667 52.0683 8.52C52.0683 8.82666 52.155 9.1 52.3283 9.34C52.515 9.58 52.8083 9.81333 53.2083 10.04C53.6217 10.2533 54.155 10.48 54.8083 10.72C55.675 11.04 56.395 11.3933 56.9683 11.78C57.555 12.1667 58.0017 12.62 58.3083 13.14C58.615 13.6467 58.7683 14.2667 58.7683 15C58.7683 15.8267 58.5617 16.5667 58.1483 17.22C57.7483 17.86 57.1883 18.36 56.4683 18.72C55.7483 19.08 54.9017 19.26 53.9283 19.26Z" fill="#1E1E1E"/>
<path d="M7.27246 16.3203C8.67185 14.5711 11.3321 14.571 12.7314 16.3203L16.3076 20.791C16.6969 21.2782 16.3502 21.9989 15.7266 21.999C15.5525 21.999 15.3837 21.9386 15.25 21.8271L13.8047 20.623C11.6018 18.7873 8.40215 18.7873 6.19922 20.623L4.75391 21.8271C4.62019 21.9386 4.45141 21.999 4.27734 21.999C3.65365 21.9989 3.30697 21.2782 3.69629 20.791L7.27246 16.3203Z" fill="#4361EE"/>
<path d="M0 6.27539C-7.44152e-09 5.65136 0.721542 5.30397 1.20898 5.69336L5.67871 9.26855C7.42818 10.6679 7.42818 13.3291 5.67871 14.7285L1.20898 18.3037C0.721789 18.6934 7.43972e-09 18.3465 0 17.7227C0.000102698 17.5487 0.0615121 17.3807 0.172852 17.2471L1.37695 15.8008C3.21243 13.5982 3.21265 10.3987 1.37695 8.19629L0.172852 6.75195C0.0614261 6.61827 0.000100225 6.44942 0 6.27539Z" fill="#4361EE"/>
<path d="M18.7939 5.69238C19.2812 5.30254 20.0036 5.64952 20.0039 6.27344C20.0039 6.44748 19.9424 6.61626 19.8311 6.75L18.626 8.19629C16.7908 10.3989 16.7913 13.5984 18.627 15.8008L19.8311 17.2451C19.9425 17.3788 20.0038 17.5477 20.0039 17.7217C20.0039 18.3459 19.2814 18.6936 18.7939 18.3037L14.3242 14.7285C12.5748 13.3292 12.5749 10.668 14.3242 9.26855L18.7939 5.69238Z" fill="#4361EE"/>
<path d="M15.7256 2C16.3497 2.00007 16.6965 2.7216 16.3066 3.20898L12.7314 7.67871C11.3322 9.42782 8.67186 9.4277 7.27246 7.67871L3.69629 3.20898C3.30634 2.7216 3.65317 2 4.27734 2C4.45143 2.00002 4.62016 2.06043 4.75391 2.17188L6.19922 3.37695C8.40184 5.21247 11.6013 5.21169 13.8037 3.37598L15.249 2.17188C15.3828 2.06048 15.5515 2 15.7256 2Z" fill="#4361EE"/>
</svg>
